<?xml version="1.0" ?><!DOCTYPE svg  PUBLIC '-//W3C//DTD SVG 1.1//EN'  'http://www.w3.org/Graphics/SVG/1.1/DTD/svg11.dtd'><svg height="8.4666mm" style="shape-rendering:geometricPrecision; text-rendering:geometricPrecision; image-rendering:optimizeQuality; fill-rule:evenodd; clip-rule:evenodd" version="1.1" viewBox="0 0 846.66 846.66" width="8.4666mm" xml:space="preserve" xmlns="http://www.w3.org/2000/svg" xmlns:xlink="http://www.w3.org/1999/xlink"><defs><style type="text/css">
   <![CDATA[
    .fil0 {fill:black;fill-rule:nonzero}
   ]]>
  </style></defs><g id="Layer_x0020_1"><path class="fil0" d="M31.52 256.97l198.6 0 0 -47.06 -65.72 0c-11.39,0 -20.63,-9.24 -20.63,-20.63l0 -86.66c0,-11.39 9.24,-20.63 20.63,-20.63l140.3 0c11.39,0 20.63,9.24 20.63,20.63l0 86.66c0,11.39 -9.24,20.63 -20.63,20.63l-33.32 0 0 47.06 303.9 0 0 -47.06 -33.32 0c-11.39,0 -20.63,-9.24 -20.63,-20.63l0 -86.66c0,-11.39 9.24,-20.63 20.63,-20.63l140.3 0c11.39,0 20.63,9.24 20.63,20.63l0 86.66c0,11.39 -9.24,20.63 -20.63,20.63l-65.72 0 0 47.06 198.6 0c11.39,0 20.63,9.23 20.63,20.63l0 466.44c0,11.39 -9.24,20.63 -20.63,20.63l-783.62 0c-11.39,0 -20.63,-9.24 -20.63,-20.63l0 -466.44c0,-11.4 9.24,-20.63 20.63,-20.63zm575.62 309.25c-27.13,0 -27.13,-41.26 0,-41.26l100.06 0c27.14,0 27.14,41.26 0,41.26l-100.06 0zm0 -84.07c-27.13,0 -27.13,-41.27 0,-41.27l100.06 0c27.14,0 27.14,41.27 0,41.27l-100.06 0zm0 -84.08c-27.13,0 -27.13,-41.26 0,-41.26l100.06 0c27.14,0 27.14,41.26 0,41.26l-100.06 0zm-554.99 254.8l742.36 0 0 -354.64c-247.45,0 -494.91,0 -742.36,0l0 354.64zm742.36 41.26l-742.36 0 0 29.28 742.36 0 0 -29.28zm-609.48 -525.48l99.04 0 0 -45.39 -99.04 0 0 45.39zm377.56 0l99.03 0 0 -45.39 -99.03 0 0 45.39zm-66.17 210.18c8.53,0.04 16.49,5.41 19.41,13.93l18.08 52.48c8.79,25.66 -30.22,39.03 -39.01,13.38l-6.03 -17.51 -105.54 129.34c-6.85,9.08 -19.77,10.89 -28.85,4.03l-101.67 -76.6 -75.92 93.32c-17.05,20.96 -48.96,-4.99 -31.91,-25.95l88.45 -108.72c7.01,-8.61 19.55,-10.08 28.34,-3.43l101.72 76.59 91.56 -112.19 -15.9 -0.99c-27.03,-1.59 -24.62,-42.69 2.42,-41.1l54.85 3.42z"/></g></svg>